# Blender 3.4.0
# www.blender.org
o Cylinder
v 0.000000 0.040000 -1.080000
v 0.000000 0.040000 -1.000000
v 0.020000 0.034641 -1.080000
v 0.020000 0.034641 -1.000000
v 0.034641 0.020000 -1.080000
v 0.034641 0.020000 -1.000000
v 0.040000 0.000000 -1.080000
v 0.040000 -0.000000 -1.000000
v 0.034641 -0.020000 -1.080000
v 0.034641 -0.020000 -1.000000
v 0.020000 -0.034641 -1.080000
v 0.020000 -0.034641 -1.000000
v 0.000000 -0.040000 -1.080000
v 0.000000 -0.040000 -1.000000
v -0.020000 -0.034641 -1.080000
v -0.020000 -0.034641 -1.000000
v -0.034641 -0.020000 -1.080000
v -0.034641 -0.020000 -1.000000
v -0.040000 0.000000 -1.080000
v -0.040000 -0.000000 -1.000000
v -0.034641 0.020000 -1.080000
v -0.034641 0.020000 -1.000000
v -0.020000 0.034641 -1.080000
v -0.020000 0.034641 -1.000000
v 0.000000 0.040000 -1.000000
v 0.000000 0.040000 1.000000
v 0.034641 0.020000 -1.000000
v 0.034641 0.020000 1.000000
v 0.034641 -0.020000 -1.000000
v 0.034641 -0.020000 1.000000
v 0.000000 -0.040000 -1.000000
v 0.000000 -0.040000 1.000000
v -0.034641 -0.020000 -1.000000
v -0.034641 -0.020000 1.000000
v -0.034641 0.020000 -1.000000
v -0.034641 0.020000 1.000000
v 0.000000 0.036069 -1.080000
v 0.018035 0.031237 -1.080000
v 0.031237 0.018035 -1.080000
v 0.036069 0.000000 -1.080000
v 0.031237 -0.018035 -1.080000
v 0.018035 -0.031237 -1.080000
v 0.000000 -0.036069 -1.080000
v -0.018035 -0.031237 -1.080000
v -0.031237 -0.018035 -1.080000
v -0.036069 0.000000 -1.080000
v -0.031237 0.018035 -1.080000
v -0.018035 0.031237 -1.080000
v 0.000000 0.036069 -1.138165
v 0.018035 0.031237 -1.138165
v 0.031237 0.018035 -1.138165
v 0.036069 0.000000 -1.138165
v 0.031237 -0.018035 -1.138165
v 0.018035 -0.031237 -1.138165
v 0.000000 -0.036069 -1.138165
v -0.018035 -0.031237 -1.138165
v -0.031237 -0.018035 -1.138165
v -0.036069 0.000000 -1.138165
v -0.031237 0.018035 -1.138165
v -0.018035 0.031237 -1.138165
v 0.000000 0.004920 1.148637
v 0.004261 0.002460 1.148637
v 0.004261 -0.002460 1.148637
v 0.000000 -0.004920 1.148637
v -0.004261 -0.002460 1.148637
v -0.004261 0.002460 1.148637
vn -0.0000 1.0000 -0.0000
vn 0.5000 0.8660 -0.0000
vn 0.8660 0.5000 -0.0000
vn 1.0000 -0.0000 -0.0000
vn 0.8660 -0.5000 -0.0000
vn 0.5000 -0.8660 -0.0000
vn -0.0000 -1.0000 -0.0000
vn -0.5000 -0.8660 -0.0000
vn -0.8660 -0.5000 -0.0000
vn -1.0000 -0.0000 -0.0000
vn -0.8660 0.5000 -0.0000
vn -0.5000 0.8660 -0.0000
vn -0.0000 -0.0000 -1.0000
vn 0.4977 0.8620 0.0968
vn 0.9953 -0.0000 0.0968
vn 0.4977 -0.8620 0.0968
vn -0.4977 -0.8620 0.0968
vn -0.9953 -0.0000 0.0968
vn -0.4977 0.8620 0.0968
vn 0.4358 -0.7548 -0.4903
vn -0.0000 -0.0000 1.0000
vn 0.4472 0.7746 0.4472
vn -0.4472 0.7746 0.4472
vn -0.4358 -0.7548 -0.4903
vn -0.9797 -0.0000 0.2003
vn 0.4899 0.8485 0.2003
vn 0.4899 -0.8485 0.2003
vn -0.4899 0.8485 0.2003
vn -0.4899 -0.8485 0.2003
vn 0.9797 -0.0000 0.2003
vn 0.9551 0.2559 0.1492
vn -0.9551 0.2559 0.1492
vt 0.001132 0.972019
vt 0.106047 0.970772
vt 0.107793 0.935242
vt 0.000005 0.934875
vt 0.010511 0.970150
vt 0.009406 0.936562
vt 0.019689 0.969341
vt 0.018749 0.933716
vt 0.028220 0.968891
vt 0.028260 0.936916
vt 0.036982 0.968548
vt 0.037911 0.935799
vt 0.045484 0.968342
vt 0.046081 0.937786
vt 0.054112 0.968201
vt 0.055165 0.935734
vt 0.062609 0.968147
vt 0.063217 0.937698
vt 0.071275 0.968166
vt 0.071495 0.935810
vt 0.079901 0.968315
vt 0.080736 0.936886
vt 0.088683 0.968636
vt 0.089673 0.933929
vt 0.097063 0.969254
vt 0.099167 0.936810
vt 0.107800 0.935223
vt 0.000000 0.934860
vt 0.107800 0.060097
vt 0.007026 0.059704
vt 0.018741 0.933697
vt 0.025187 0.065002
vt 0.037906 0.935787
vt 0.041425 0.067852
vt 0.055165 0.935722
vt 0.057130 0.068825
vt 0.071500 0.935802
vt 0.072809 0.068077
vt 0.089680 0.933914
vt 0.090122 0.065331
vt 0.002016 0.973816
vt 0.105340 0.972275
vt 0.010768 0.971985
vt 0.019780 0.971073
vt 0.028289 0.970577
vt 0.037005 0.970238
vt 0.045502 0.970016
vt 0.054104 0.969875
vt 0.062594 0.969822
vt 0.071231 0.969856
vt 0.079837 0.970009
vt 0.088558 0.970310
vt 0.096865 0.970852
vt 0.107800 0.011090
vt 0.005842 1.000000
vt 0.102710 0.998543
vt 0.111859 0.004059
vt 0.013823 0.998928
vt 0.021877 0.998074
vt 0.118890 0.000000
vt 0.029917 0.997429
vt 0.127008 0.000000
vt 0.037994 0.996956
vt 0.134039 0.004059
vt 0.046070 0.996628
vt 0.138098 0.011090
vt 0.138098 0.019208
vt 0.054163 0.996429
vt 0.062241 0.996361
vt 0.134039 0.026239
vt 0.070315 0.996422
vt 0.127008 0.030298
vt 0.078354 0.996643
vt 0.118890 0.030298
vt 0.086357 0.997059
vt 0.111859 0.026239
vt 0.094279 0.997696
vt 0.107800 0.019208
vt 0.107800 0.033508
vt 0.050879 0.000061
vt 0.063906 0.000000
vt 0.109652 0.034580
vt 0.052950 0.001244
vt 0.111506 0.033508
vt 0.055188 0.001926
vt 0.111506 0.031368
vt 0.057454 0.002132
vt 0.109652 0.030300
vt 0.059698 0.001884
vt 0.107800 0.031368
vt 0.061869 0.001190
s 1
f 2/4/1 3/5/2 1/1/1
f 4/6/2 5/7/3 3/5/2
f 6/8/3 7/9/4 5/7/3
f 8/10/4 9/11/5 7/9/4
f 10/12/5 11/13/6 9/11/5
f 12/14/6 13/15/7 11/13/6
f 14/16/7 15/17/8 13/15/7
f 16/18/8 17/19/9 15/17/8
f 18/20/9 19/21/10 17/19/9
f 20/22/10 21/23/11 19/21/10
f 22/24/11 23/25/12 21/23/11
f 24/26/12 1/2/1 23/25/12
f 15/17/13 45/50/13 44/49/13
f 26/30/14 27/31/2 25/28/2
f 28/32/15 29/33/4 27/31/4
f 30/34/16 31/35/6 29/33/6
f 32/36/17 33/37/8 31/35/8
f 34/38/18 35/39/10 33/37/10
f 36/40/19 25/27/12 35/39/12
f 22/24/20 35/39/20 2/3/20
f 20/22/21 33/37/21 22/24/21
f 14/16/22 33/37/22 18/20/22
f 10/12/23 31/35/23 14/16/23
f 8/10/21 6/8/21 29/33/21
f 2/4/24 25/28/24 6/8/24
f 41/46/5 52/61/4 40/45/4
f 15/17/13 43/48/13 13/15/13
f 13/15/13 42/47/13 11/13/13
f 9/11/13 42/47/13 41/46/13
f 9/11/13 40/45/13 7/9/13
f 1/2/13 48/53/13 23/25/13
f 3/5/13 37/41/13 1/1/13
f 7/9/13 39/44/13 5/7/13
f 21/23/13 48/53/13 47/52/13
f 3/5/13 39/44/13 38/43/13
f 21/23/13 46/51/13 19/21/13
f 19/21/13 45/50/13 17/19/13
f 48/53/12 59/75/11 47/52/11
f 38/43/2 49/55/1 37/41/1
f 45/50/9 56/69/8 44/49/8
f 42/47/6 53/63/5 41/46/5
f 37/42/1 60/77/12 48/53/12
f 39/44/3 50/58/2 38/43/2
f 46/51/10 57/71/9 45/50/9
f 43/48/7 54/65/6 42/47/6
f 40/45/4 51/59/3 39/44/3
f 47/52/11 58/73/10 46/51/10
f 44/49/8 55/68/7 43/48/7
f 34/38/18 66/91/25 36/40/18
f 26/30/14 62/83/26 28/32/14
f 30/34/16 64/87/27 32/36/16
f 36/40/19 61/81/28 26/29/19
f 32/36/17 65/89/29 34/38/17
f 28/32/15 63/85/30 30/34/15
f 61/79/21 66/90/21 62/82/21
f 62/82/21 66/90/21 63/84/21
f 66/90/21 65/88/21 63/84/21
f 64/86/21 63/84/21 65/88/21
f 49/54/13 50/57/13 60/78/13
f 51/60/13 60/78/13 50/57/13
f 52/62/13 59/76/13 51/60/13
f 53/64/13 58/74/13 52/62/13
f 54/66/13 57/72/13 53/64/13
f 55/67/13 56/70/13 54/66/13
f 2/4/1 4/6/2 3/5/2
f 4/6/2 6/8/3 5/7/3
f 6/8/3 8/10/4 7/9/4
f 8/10/4 10/12/5 9/11/5
f 10/12/5 12/14/6 11/13/6
f 12/14/6 14/16/7 13/15/7
f 14/16/7 16/18/8 15/17/8
f 16/18/8 18/20/9 17/19/9
f 18/20/9 20/22/10 19/21/10
f 20/22/10 22/24/11 21/23/11
f 22/24/11 24/26/12 23/25/12
f 24/26/12 2/3/1 1/2/1
f 15/17/13 17/19/13 45/50/13
f 26/30/14 28/32/14 27/31/2
f 28/32/15 30/34/15 29/33/4
f 30/34/16 32/36/16 31/35/6
f 32/36/17 34/38/17 33/37/8
f 34/38/18 36/40/18 35/39/10
f 36/40/19 26/29/19 25/27/12
f 2/3/21 24/26/21 22/24/21
f 35/39/20 25/27/20 2/3/20
f 20/22/31 18/20/31 33/37/31
f 33/37/4 35/39/4 22/24/4
f 18/20/21 16/18/21 14/16/21
f 14/16/22 31/35/22 33/37/22
f 14/16/21 12/14/21 10/12/21
f 10/12/23 29/33/23 31/35/23
f 6/8/10 27/31/10 29/33/10
f 29/33/32 10/12/32 8/10/32
f 6/8/21 4/6/21 2/4/21
f 25/28/24 27/31/24 6/8/24
f 41/46/5 53/63/5 52/61/4
f 15/17/13 44/49/13 43/48/13
f 13/15/13 43/48/13 42/47/13
f 9/11/13 11/13/13 42/47/13
f 9/11/13 41/46/13 40/45/13
f 1/2/13 37/42/13 48/53/13
f 3/5/13 38/43/13 37/41/13
f 7/9/13 40/45/13 39/44/13
f 21/23/13 23/25/13 48/53/13
f 3/5/13 5/7/13 39/44/13
f 21/23/13 47/52/13 46/51/13
f 19/21/13 46/51/13 45/50/13
f 48/53/12 60/77/12 59/75/11
f 38/43/2 50/58/2 49/55/1
f 45/50/9 57/71/9 56/69/8
f 42/47/6 54/65/6 53/63/5
f 37/42/1 49/56/1 60/77/12
f 39/44/3 51/59/3 50/58/2
f 46/51/10 58/73/10 57/71/9
f 43/48/7 55/68/7 54/65/6
f 40/45/4 52/61/4 51/59/3
f 47/52/11 59/75/11 58/73/10
f 44/49/8 56/69/8 55/68/7
f 34/38/18 65/89/25 66/91/25
f 26/30/14 61/80/26 62/83/26
f 30/34/16 63/85/27 64/87/27
f 36/40/19 66/91/28 61/81/28
f 32/36/17 64/87/29 65/89/29
f 28/32/15 62/83/30 63/85/30
f 51/60/13 59/76/13 60/78/13
f 52/62/13 58/74/13 59/76/13
f 53/64/13 57/72/13 58/74/13
f 54/66/13 56/70/13 57/72/13
